<?xml version="1.0" encoding="UTF-8"?>
<svg xmlns="http://www.w3.org/2000/svg" xmlns:xlink="http://www.w3.org/1999/xlink" width="48px" height="48px" viewBox="0 0 48 48" version="1.1">
<g id="surface1">
<path style="fill-rule:nonzero;fill:rgb(0%,0%,0%);fill-opacity:1;stroke-width:0.354331;stroke-linecap:butt;stroke-linejoin:miter;stroke:rgb(0%,0%,0%);stroke-opacity:1;stroke-miterlimit:4;" d="M 0.00174386 30.509208 L 0.00174386 27.091239 L 0.900995 26.639579 C 2.085077 27.367932 3.358677 27.9498 4.685175 28.368908 C 4.693313 28.368908 4.697382 28.372977 4.701451 28.372977 C 5.433873 28.596773 6.182571 28.755464 6.939407 28.844982 C 7.684036 28.93857 8.432733 28.983329 9.181431 28.97926 C 11.431594 28.97926 13.201614 28.588635 14.49149 27.811454 C 15.008254 27.510347 15.447707 27.095308 15.785435 26.602958 C 16.212681 25.964123 16.42427 25.19508 16.42427 24.299898 C 16.428339 23.860445 16.375442 23.420991 16.265578 22.993745 C 16.131301 22.476981 15.895299 21.996838 15.569778 21.57773 C 15.207636 21.113863 14.784459 20.698823 14.312453 20.340751 C 13.982864 20.092541 13.636998 19.864676 13.274856 19.665295 C 12.542434 19.254325 11.793736 18.879976 11.028762 18.53411 C 10.735793 18.403902 10.442825 18.277762 10.145787 18.159761 C 9.02274 17.691825 7.891555 17.199475 6.748163 16.674572 C 5.60884 16.14967 4.559036 15.523042 3.598749 14.806896 C 2.638463 14.086682 1.873489 13.199637 1.303827 12.149833 C 0.770787 11.165132 0.485956 9.972912 0.453404 8.569103 C 0.449335 8.471447 0.449335 8.37786 0.449335 8.280204 C 0.445266 7.59661 0.51037 6.913016 0.648717 6.245698 C 0.835891 5.362723 1.153274 4.585542 1.596796 3.910086 C 1.682245 3.779878 1.771763 3.653739 1.86942 3.531669 C 2.81343 2.319103 4.050409 1.423921 5.580357 0.85426 C 7.041132 0.31715 8.583287 0.0282506 10.141718 0.0038365 C 10.25565 -0.000232515 10.369582 -0.000232515 10.483515 -0.000232515 C 11.264765 0.0038365 12.046015 0.0526646 12.823196 0.150321 C 13.319615 0.211356 13.816034 0.288667 14.308384 0.382254 C 15.659296 0.638602 16.993931 1.049572 18.31636 1.619234 L 18.31636 5.041271 L 17.413039 5.488863 C 16.395787 4.858166 15.321568 4.386161 14.198521 4.072847 C 13.071405 3.759533 11.923944 3.600842 10.756138 3.600842 C 10.178339 3.596773 9.604608 3.637463 9.039016 3.726981 C 8.501907 3.804292 7.977004 3.93857 7.468378 4.117606 C 7.057408 4.26409 6.662714 4.455334 6.292434 4.687267 C 5.885533 4.947684 5.523391 5.273205 5.218215 5.647554 C 4.835728 6.135835 4.58345 6.709566 4.481724 7.323986 C 4.432896 7.608817 4.408482 7.897717 4.408482 8.190685 C 4.408482 8.630139 4.465448 9.069592 4.579381 9.496838 C 4.717727 9.985119 4.949661 10.444917 5.262974 10.84368 C 5.621047 11.287202 6.032017 11.685965 6.487746 12.023693 C 6.825474 12.280041 7.187616 12.507906 7.561965 12.711356 C 8.184524 13.053153 8.819289 13.370536 9.466262 13.663504 C 9.877232 13.850679 10.292271 14.025646 10.711379 14.196545 C 11.850702 14.664481 12.981887 15.156831 14.109003 15.681734 C 15.23205 16.206636 16.273717 16.837333 17.234003 17.573823 C 18.194289 18.306245 18.959263 19.209566 19.528925 20.271577 C 20.098586 21.337658 20.383417 22.635672 20.383417 24.16562 C 20.387486 24.751558 20.338658 25.337495 20.241002 25.915295 C 20.114862 26.611096 19.915481 27.245861 19.634719 27.815523 C 19.594029 27.896903 19.54927 27.978283 19.50858 28.055594 C 18.922642 29.121675 18.129185 29.984305 17.12414 30.643485 C 16.281855 31.192801 15.366327 31.620047 14.406041 31.913016 C 14.174107 31.982189 13.938105 32.051363 13.702102 32.108329 C 12.554641 32.38909 11.382766 32.543713 10.202753 32.572196 C 10.023717 32.576265 9.848749 32.580334 9.673782 32.580334 C 9.547642 32.580334 9.421503 32.584403 9.295364 32.584403 C 7.679967 32.584403 6.072707 32.405366 4.498 32.039156 C 3.623163 31.839774 2.756464 31.587495 1.906041 31.290458 C 1.254999 31.066662 0.620233 30.806245 0.00174386 30.509208 Z M 0.00174386 30.509208 " transform="matrix(0.96,0,0,0.96,17.142857,8.914286)"/>
</g>
</svg>
